PathFileType	4	(X/Y/Z)	Kaydara																																																																																																																									
DataRate	CameraRate	NumFrames	NumMarkers	Units	OrigDataRate	OrigDataStartFrame	OrigNumFrames																																																																																																																					
30	30	5	41	mm	30	52	147																																																																																																																					
Frame#	Time	PAIB_LFHD			PAIB_RFHD			PAIB_LBHD			PAIB_RBHD			PAIB_LFTShould			PAIB_RFTShould			PAIB_LRRShould			PAIB_RRRShould			PAIB_T10			PAIB_STRN			PAIB_TRUN			PAIB_LSHO			PAIB_LUPA			PAIB_LELB			PAIB_LFRM			PAIB_LWRA			PAIB_LWRB			PAIB_LFIN			PAIB_RSHO			PAIB_RUPA			PAIB_RELB			PAIB_RFRM			PAIB_RWRA			PAIB_RWRB			PAIB_RFIN			PAIB_LFWT			PAIB_RFWT			PAIB_LBWT			PAIB_RBWT			PAIB_LTHI			PAIB_LKNE			PAIB_LSHN			PAIB_LANK			PAIB_LHEE			PAIB_LTOE			PAIB_RTHI			PAIB_RKNE			PAIB_RSHN			PAIB_RANK			PAIB_RHEE			PAIB_RTOE		
		X1	Y1	Z1	X2	Y2	Z2	X3	Y3	Z3	X4	Y4	Z4	X5	Y5	Z5	X6	Y6	Z6	X7	Y7	Z7	X8	Y8	Z8	X9	Y9	Z9	X10	Y10	Z10	X11	Y11	Z11	X12	Y12	Z12	X13	Y13	Z13	X14	Y14	Z14	X15	Y15	Z15	X16	Y16	Z16	X17	Y17	Z17	X18	Y18	Z18	X19	Y19	Z19	X20	Y20	Z20	X21	Y21	Z21	X22	Y22	Z22	X23	Y23	Z23	X24	Y24	Z24	X25	Y25	Z25	X26	Y26	Z26	X27	Y27	Z27	X28	Y28	Z28	X29	Y29	Z29	X30	Y30	Z30	X31	Y31	Z31	X32	Y32	Z32	X33	Y33	Z33	X34	Y34	Z34	X35	Y35	Z35	X36	Y36	Z36	X37	Y37	Z37	X38	Y38	Z38	X39	Y39	Z39	X40	Y40	Z40	X41	Y41	Z41
																																																																																																																												
37	1.7	257.50671	1705.39093	-2016.61728	70.45981	1709.33014	-2029.96155	269.20975	1643.96271	-2130.62958	67.47577	1664.13116	-2137.82516	217.10085	1432.18353	-1989.2186	94.83264	1431.09344	-1994.60846	228.48789	1492.34528	-2137.53098	76.19878	1492.77069	-2130.55542	148.53745	1332.11945	-2210.68695	163.59844	1368.06915	-1950.35309	161.10027	1267.59682	-1924.18701	348.15445	1437.94037	-2073.02734	391.95156	1216.54419	-2067.16232	412.07703	1126.61171	-2115.73975	433.77663	1016.11595	-2066.07635	383.2901	911.43242	-1966.44684	415.59547	886.39633	-2032.81647	433.13766	855.94254	-1969.32281	-32.7164	1432.3111	-2051.91605	-99.71487	1260.05051	-2091.95709	-123.86917	1145.19669	-2095.26093	-145.75742	1015.31784	-2047.95044	-92.04363	924.14406	-1936.77139	-158.64062	905.60089	-1984.21036	-152.43582	878.34068	-1914.61945	262.82114	975.83694	-1961.49094	26.20697	977.51144	-1961.02875	199.16386	1017.09953	-2177.82684	55.92218	1019.91722	-2174.30222	246.92213	740.29327	-2163.10089	299.95586	499.05388	-2061.18729	281.18732	307.25941	-2066.62567	283.63052	130.45889	-2171.4505	226.03748	122.62155	-2215.97931	277.26089	75.10214	-2000.53482	2.32902	719.39323	-2152.15668	-2.92108	482.69817	-2055.61966	55.74609	295.76221	-2054.89899	26.36097	104.25281	-2162.34177	92.96524	114.25636	-2208.22708	36.44487	77.5464	-1988.58139
38	1.733	257.11357	1704.97452	-2016.14029	69.97821	1708.87344	-2029.74442	268.85769	1643.3754	-2130.09933	67.1402	1663.57513	-2137.57767	216.15715	1431.39175	-1988.49701	93.91319	1430.4393	-1994.31458	228.00903	1491.64185	-2136.67007	75.71873	1492.24533	-2130.17929	148.30907	1331.57669	-2210.09781	162.53288	1367.45163	-1949.83932	160.13124	1266.96541	-1923.61435	347.92538	1437.47787	-2072.40707	391.20396	1215.85503	-2066.28708	411.61339	1126.08215	-2114.95758	432.69981	1015.35667	-2065.20279	381.37745	910.81841	-1965.77423	413.88557	885.72769	-2032.07413	431.07613	855.11169	-1968.591	-33.54134	1431.8428	-2051.87332	-100.20874	1259.36234	-2091.59668	-124.3621	1144.63379	-2094.91821	-146.39432	1014.79691	-2047.38052	-93.22189	923.64182	-1935.97885	-159.67658	905.30769	-1983.69934	-153.54589	878.00705	-1913.84811	262.59186	975.04868	-1960.80811	25.9543	976.93977	-1960.35202	198.82555	1017.43584	-2176.6188	55.4971	1020.03265	-2173.07709	246.50709	740.40695	-2163.36563	300.24656	498.77598	-2060.92361	280.79287	306.5905	-2065.88638	284.31721	130.51449	-2172.02911	226.85232	122.26352	-2216.76895	277.66802	76.35788	-2002.09564	1.64244	718.70583	-2151.01791	-2.8265	482.19429	-2053.50357	56.59714	295.12632	-2053.35907	26.03483	104.42438	-2162.45819	92.84478	114.2046	-2208.43811	36.89982	78.91894	-1989.83215
39	1.767	256.32601	1704.59152	-2015.34821	69.36278	1708.49869	-2029.22562	268.21398	1642.49023	-2128.84918	66.59689	1662.92282	-2136.95908	215.22526	1430.84702	-1987.30652	92.73613	1429.91013	-1993.47412	227.31413	1490.82855	-2135.41916	74.97004	1491.53625	-2129.2189	147.86137	1330.77972	-2208.66974	161.49035	1366.83273	-1948.61221	159.18652	1266.40213	-1922.27127	346.69903	1436.54602	-2070.46448	390.17639	1214.99176	-2064.24469	411.12659	1125.33043	-2112.87613	431.56723	1014.53384	-2063.02017	379.05647	909.92775	-1964.21158	412.13596	884.91371	-2030.13214	428.55839	854.02122	-1966.49811	-34.48158	1431.12854	-2051.26892	-100.85256	1258.52036	-2091.17203	-125.09235	1143.88672	-2094.44519	-147.22039	1014.08875	-2046.47675	-94.61972	923.49388	-1934.59686	-160.79256	904.9054	-1982.70615	-155.08711	877.67899	-1912.61871	262.18929	974.14726	-1960.16357	25.57047	975.96741	-1959.50867	198.16055	1017.76527	-2175.39581	54.82639	1020.4068	-2171.55777	247.31108	739.61227	-2162.60269	300.47319	498.39542	-2056.84021	280.10693	305.60877	-2063.44238	285.91854	130.56408	-2171.65726	228.94304	122.73542	-2217.78992	278.49367	78.44082	-2003.927	0.74977	717.62169	-2148.97888	-2.62674	481.38008	-2049.89639	57.5065	294.23466	-2052.71454	25.64141	104.49163	-2162.18872	92.52036	114.25176	-2208.65768	37.26449	80.71883	-1991.20819
40	1.8	255.6118	1704.31961	-2013.64441	68.54237	1708.15826	-2027.82623	267.26665	1641.5036	-2127.08542	65.74189	1661.95389	-2135.4129	214.5491	1430.32501	-1985.17914	91.61884	1429.11255	-1991.12411	226.3516	1490.32379	-2133.11478	73.9933	1490.85526	-2126.95236	147.21629	1330.10529	-2205.9433	160.48946	1366.07895	-1946.30707	158.32001	1265.66933	-1920.03357	345.63957	1435.66788	-2068.2222	389.01604	1214.18839	-2061.30493	410.17464	1124.36745	-2109.73312	430.05814	1013.64922	-2059.58649	376.49418	909.22516	-1961.22574	410.34233	884.12537	-2026.81183	425.95562	853.25851	-1963.06747	-35.5678	1430.2536	-2049.44733	-101.6359	1257.65892	-2090.13184	-125.85832	1143.06274	-2093.5527	-148.15506	1013.27774	-2045.33783	-96.31031	923.02841	-1932.72156	-162.04063	904.14818	-1981.26984	-156.93855	877.23228	-1911.21719	261.66744	973.99971	-1958.53729	25.23849	975.35416	-1957.71912	196.97254	1017.74269	-2173.68927	53.75544	1020.09583	-2169.66263	248.20868	739.31221	-2160.31448	299.64188	498.29525	-2051.50558	279.45705	305.11225	-2061.4444	286.92989	130.9149	-2171.79932	230.48315	123.1059	-2218.32077	278.63134	80.44309	-2004.98779	-0.05847	716.85936	-2146.66626	-2.58145	480.69054	-2047.16705	57.84929	293.31964	-2051.59958	25.34546	104.59631	-2162.37091	92.24959	114.25974	-2209.00543	37.14503	82.6986	-1992.69409
41	1.833	254.04671	1703.86078	-2011.31866	67.23917	1707.93961	-2025.45303	266.09825	1640.38696	-2124.2482	64.48421	1660.92346	-2132.59674	212.95559	1429.47205	-1981.48071	90.55453	1428.46146	-1987.742	225.20161	1489.98077	-2129.6553	72.68456	1490.59586	-2123.57925	146.0699	1329.87747	-2202.71042	159.4735	1365.37216	-1943.23807	157.28558	1264.87312	-1917.23602	344.33247	1434.89578	-2064.63959	387.58236	1213.40904	-2057.82486	408.90133	1123.65723	-2106.46805	428.12542	1013.03169	-2055.37445	373.43132	909.33502	-1956.75888	407.93732	883.84209	-2021.98059	423.0394	853.36288	-1957.95532	-36.87057	1429.59702	-2046.23657	-102.51763	1257.0388	-2087.79312	-126.71494	1142.45956	-2091.6861	-149.19217	1012.65327	-2043.84796	-97.9215	922.18887	-1930.84045	-163.2962	903.35899	-1979.92935	-158.71758	876.50932	-1909.78546	260.95324	973.88786	-1955.45258	24.43505	975.17738	-1954.69177	196.00521	1017.32254	-2170.55878	52.79231	1019.63066	-2166.59073	247.71204	739.32785	-2157.57828	298.65797	498.54362	-2048.9064	279.15915	304.88789	-2061.0257	287.13057	131.20968	-2172.38892	230.8041	123.24282	-2218.98315	278.12151	82.30203	-2005.70755	-0.7154	716.64673	-2143.94882	-3.00433	480.36625	-2045.20767	57.68444	292.97941	-2050.86639	24.95708	104.77688	-2162.72736	91.90434	114.3086	-2209.41971	36.99086	84.88409	-1993.92593
